<svg viewBox="-100 -80 470 514" preserveAspectRatio="xMidYMid meet" class="poly">
  <g class="poly-green-1">
    <polygon points="235.4,58.2 269.2,0.8 186.7,0.8"/>
  </g>
  <g class="poly-green-2">
    <polygon points="186.7,0.8 235.4,58.2 188.8,82"/>
  </g>
  <g class="poly-green-3">
    <polygon points="269.2,0.8 235.4,58.2 269.2,79.8"/>
  </g>
  <g class="poly-cyan-1">
    <polygon points="232.3,145.3 235.4,58.2 188.8,82"/>
  </g>
  <g class="poly-cyan-2">
    <polygon points="232.3,145.3 269.2,79.8 235.4,58.2"/>
  </g>
  <g class="poly-cyan-3">
    <polygon points="188.8,82 232.3,145.3 185.5,131.1"/>
  </g>
  <g class="poly-cyan-4">
    <polygon points="269.2,79.8 232.3,145.3 267.8,126.6"/>
  </g>
  <g class="poly-blue-1">
    <polygon points="185.5,131.1 188.8,196.8 232.3,145.3"/>
  </g>
  <g class="poly-blue-2">
    <polygon points="232.3,145.3 237.3,206.6 188.8,196.8"/>
  </g>
  <g class="poly-blue-3">
    <polygon points="232.3,145.3 267.8,202.7 237.3,206.6"/>
  </g>
  <g class="poly-blue-4">
    <polygon points="232.3,145.3 267.8,126.6 267.8,202.7"/>
  </g>
  <g class="poly-purple-1">
    <polygon points="188.8,196.8 203.3,290.1 184.9,255.9"/>
  </g>
  <g class="poly-purple-2">
    <polygon points="203.3,290.1 237.3,206.6 188.8,196.8"/>
  </g>
  <g class="poly-purple-3">
    <polygon points="203.3,290.1 267.8,202.7 237.3,206.6"/>
  </g>
  <g class="poly-purple-4">
    <polygon points="203.3,290.1 261.3,279.3 267.8,202.7"/>
  </g>
  <g class="poly-pink-1">
    <polygon points="145.3,285.4 184.9,255.9 135.6,315.1"/>
  </g>
  <g class="poly-pink-2">
    <polygon points="135.6,315.1 203.3,290.1 184.9,255.9"/>
  </g>
  <g class="poly-pink-3">
    <polygon points="203.3,290.1 261.3,279.3 236,323.5"/>
  </g>
  <g class="poly-pink-4">
    <polygon points="135.6,315.1 236,323.5 203.3,290.1"/>
  </g>
  <g class="poly-pink-5">
    <polygon points="135.6,315.1 180.7,353.2 236,323.5"/>
  </g>
  <g class="poly-red-1">
    <polygon points="135.6,315.1 104.4,274 145.3,285.4"/>
  </g>
  <g class="poly-red-2">
    <polygon points="135.6,315.1 73.6,290.1 104.4,274"/>
  </g>
  <g class="poly-red-3">
    <polygon points="73.6,290.1 64.2,335.2 102.1,351.8"/>
  </g>
  <g class="poly-red-4">
    <polygon points="73.6,290.1 102.1,351.8 135.6,315.1"/>
  </g>
  <g class="poly-red-5">
    <polygon points="102.1,351.8 180.7,353.2 135.6,315.1"/>
  </g>
  <g class="poly-orange-1">
    <polygon points="46.1,273 77.8,250.5 104.4,274"/>
  </g>
  <g class="poly-orange-2">
    <polygon points="73.6,290.1 46.1,273 104.4,274"/>
  </g>
  <g class="poly-orange-3">
    <polygon points="46.1,273 64.2,335.2 73.6,290.1"/>
  </g>
  <g class="poly-orange-4">
    <polygon points="46.1,273 8.5,275.2 64.2,335.2"/>
  </g>
  <g class="poly-yellow-1">
    <polygon points="46.1,273 0.8,251.5 8.5,275.2"/>
  </g>
  <g class="poly-yellow-2">
    <polygon points="0.8,251.5 69.5,230 46.1,273"/>
  </g>
  <g class="poly-yellow-3">
    <polygon points="46.1,273 69.5,230 77.8,250.5"/>
  </g>
</svg>
